<svg width="90" height="71" viewBox="0 0 90 71" fill="none" xmlns="http://www.w3.org/2000/svg">
    <path d="M88.9918 40.3411C85.8243 22.8748 73.523 13.6805 66.1861 7.16884C42.4919 -13.86 -2.82346 21.0895 0.138371 40.3413C5.82988 77.3359 20.952 32.7632 41.0105 62.8508C49.8959 76.179 95.2373 74.7797 88.9918 40.3411Z" fill="#F3FAFF"></path>
    <path d="M31.455 10.7736C33.8419 8.96593 36.7558 7.99094 39.75 7.99813C40.7841 7.97494 41.8073 8.21295 42.725 8.69014C43.6426 9.16733 44.4251 9.86828 45 10.7281C45.5749 9.86828 46.3574 9.16733 47.275 8.69014C48.1927 8.21295 49.2159 7.97494 50.25 7.99813C53.2442 7.99094 56.1581 8.96593 58.545 10.7736C60.3825 12.2016 61.8 14.1791 62.3005 16.5696C63.4485 16.6571 64.4985 17.1331 65.3805 17.8506C66.7175 18.9356 67.6905 20.5631 68.303 22.2851C69.262 24.9626 69.521 28.3751 68.527 31.2801C68.779 31.3991 69.0275 31.5391 69.269 31.7001C70.2315 32.3406 70.963 33.2576 71.502 34.3391C72.5625 36.4566 73 39.4106 73 42.9981C73 46.9916 71.4775 49.6726 69.5455 51.3281C68.4771 52.2442 67.2163 52.9081 65.8565 53.2706C65.5065 55.2236 64.5265 57.4846 62.99 59.4026C60.995 61.9051 57.901 63.9981 53.75 63.9981C50.46 63.9981 47.842 62.1781 46.141 60.3931C45.7343 59.9669 45.3533 59.517 45 59.0456C44.6467 59.517 44.2657 59.967 43.859 60.3931C42.158 62.1781 39.5435 63.9981 36.25 63.9981C32.099 63.9981 29.0085 61.9051 27.01 59.4026C25.5742 57.6196 24.5907 55.5158 24.1435 53.2706C22.7837 52.9081 21.5229 52.2442 20.4545 51.3281C18.5225 49.6726 17 46.9881 17 42.9981C17 39.4106 17.441 36.4531 18.498 34.3391C19.037 33.2576 19.7685 32.3441 20.731 31.6966C20.9674 31.5401 21.2154 31.4021 21.473 31.2836C20.479 28.3716 20.738 24.9626 21.697 22.2851C22.3095 20.5631 23.2825 18.9356 24.6195 17.8506C25.5015 17.1331 26.5515 16.6606 27.6995 16.5696C28.2035 14.1791 29.621 12.2016 31.4585 10.7736H31.455ZM43.25 16.7481V16.7131L43.243 16.5381C43.1915 15.6257 43.01 14.7253 42.704 13.8641C42.4862 13.214 42.1152 12.6258 41.6225 12.1491C41.1055 11.699 40.4347 11.4657 39.75 11.4981C37.5343 11.4905 35.3766 12.2057 33.604 13.5351C31.98 14.7986 31 16.5101 31 18.4981C30.9998 18.7753 30.9338 19.0484 30.8073 19.295C30.6809 19.5417 30.4977 19.7547 30.2729 19.9167C30.048 20.0787 29.7879 20.185 29.5139 20.2268C29.2399 20.2686 28.9599 20.2447 28.697 20.1571C28.039 19.9401 27.451 20.0626 26.8245 20.5666C26.1385 21.1266 25.47 22.1206 24.9905 23.4611C24.014 26.1981 24.1155 29.5126 25.456 31.5286C25.6474 31.8157 25.7497 32.153 25.75 32.4981H28.375C30.4636 32.4981 32.4666 33.3278 33.9435 34.8047C35.4203 36.2815 36.25 38.2845 36.25 40.3731V41.5456C37.4176 41.9584 38.4017 42.7707 39.0284 43.839C39.655 44.9072 39.8838 46.1625 39.6744 47.3832C39.465 48.6038 38.8308 49.7111 37.8839 50.5093C36.937 51.3076 35.7385 51.7454 34.5 51.7454C33.2615 51.7454 32.063 51.3076 31.1161 50.5093C30.1692 49.7111 29.535 48.6038 29.3256 47.3832C29.1162 46.1625 29.345 44.9072 29.9716 43.839C30.5983 42.7707 31.5824 41.9584 32.75 41.5456V40.3731C32.75 37.9581 30.79 35.9981 28.375 35.9981H22.25C22.0408 35.9978 21.8333 35.9598 21.6375 35.8861L21.627 35.9071C20.934 37.2896 20.5 39.5856 20.5 42.9981C20.5 46.0046 21.6025 47.6986 22.733 48.6681C23.9475 49.7111 25.295 49.9981 25.75 49.9981C26.2141 49.9981 26.6592 50.1825 26.9874 50.5107C27.3156 50.8389 27.5 51.284 27.5 51.7481C27.5 53.0361 28.2 55.2866 29.74 57.2186C31.2415 59.0911 33.401 60.4981 36.25 60.4981C38.21 60.4981 39.967 59.4026 41.325 57.9781C41.9935 57.2781 42.515 56.5536 42.8545 55.9586C43.009 55.6948 43.1413 55.4185 43.25 55.1326V27.2481H39.4525C39.0397 28.4158 38.2274 29.3998 37.1592 30.0265C36.0909 30.6531 34.8356 30.8819 33.615 30.6725C32.3943 30.4631 31.2871 29.8289 30.4888 28.882C29.6906 27.9352 29.2528 26.7366 29.2528 25.4981C29.2528 24.2597 29.6906 23.0611 30.4888 22.1142C31.2871 21.1674 32.3943 20.5332 33.615 20.3237C34.8356 20.1143 36.0909 20.3431 37.1592 20.9698C38.2274 21.5964 39.0397 22.5805 39.4525 23.7481H43.25V16.7481ZM46.75 51.7446V55.1291C46.8587 55.415 46.991 55.6912 47.1455 55.9551C47.4885 56.5501 48.0065 57.2746 48.6715 57.9746C50.033 59.3991 51.7935 60.4946 53.75 60.4946C56.599 60.4946 58.7585 59.0876 60.26 57.2151C61.8 55.2831 62.5 53.0326 62.5 51.7446C62.5 51.2805 62.6844 50.8354 63.0126 50.5072C63.3408 50.179 63.7859 49.9946 64.25 49.9946C64.705 49.9946 66.0525 49.7076 67.267 48.6646C68.3975 47.6951 69.5 46.0011 69.5 42.9946C69.5 39.5821 69.0625 37.2896 68.373 35.9036C68.1423 35.3875 67.7803 34.941 67.323 34.6086C66.9289 34.3567 66.4674 34.2309 66 34.2481C65.6835 34.248 65.3729 34.1619 65.1014 33.9992C64.8298 33.8365 64.6075 33.6032 64.4581 33.3241C64.3087 33.0451 64.2378 32.7307 64.2529 32.4145C64.268 32.0983 64.3686 31.7922 64.544 31.5286C65.888 29.5126 65.986 26.1981 65.0095 23.4611C64.53 22.1206 63.8615 21.1231 63.1755 20.5666C62.549 20.0626 61.961 19.9366 61.303 20.1571C61.0401 20.2447 60.7601 20.2686 60.4861 20.2268C60.2121 20.185 59.952 20.0787 59.7271 19.9167C59.5023 19.7547 59.3191 19.5417 59.1927 19.295C59.0662 19.0484 59.0002 18.7753 59 18.4981C59 16.5101 58.02 14.7986 56.3925 13.5351C54.6209 12.2064 52.4645 11.4913 50.25 11.4981C49.5653 11.4657 48.8945 11.699 48.3775 12.1491C47.8833 12.6253 47.5111 13.2136 47.2925 13.8641C46.9593 14.7783 46.7761 15.7404 46.75 16.7131V48.2481H49.375C51.79 48.2481 53.75 46.2881 53.75 43.8731V37.4506C52.5824 37.0378 51.5983 36.2255 50.9716 35.1573C50.345 34.0891 50.1162 32.8337 50.3256 31.6131C50.535 30.3925 51.1692 29.2852 52.1161 28.4869C53.063 27.6887 54.2615 27.2509 55.5 27.2509C56.7385 27.2509 57.937 27.6887 58.8839 28.4869C59.8308 29.2852 60.465 30.3925 60.6744 31.6131C60.8838 32.8337 60.655 34.0891 60.0284 35.1573C59.4017 36.2255 58.4176 37.0378 57.25 37.4506V43.8731C57.25 45.9617 56.4203 47.9647 54.9435 49.4416C53.4666 50.9184 51.4636 51.7481 49.375 51.7481H46.75V51.7446ZM32.75 25.4981C32.75 25.9623 32.9344 26.4074 33.2626 26.7356C33.5908 27.0638 34.0359 27.2481 34.5 27.2481C34.9641 27.2481 35.4092 27.0638 35.7374 26.7356C36.0656 26.4074 36.25 25.9623 36.25 25.4981C36.25 25.034 36.0656 24.5889 35.7374 24.2607C35.4092 23.9325 34.9641 23.7481 34.5 23.7481C34.0359 23.7481 33.5908 23.9325 33.2626 24.2607C32.9344 24.5889 32.75 25.034 32.75 25.4981ZM55.5 34.2481C55.9641 34.2481 56.4092 34.0638 56.7374 33.7356C57.0656 33.4074 57.25 32.9623 57.25 32.4981C57.25 32.034 57.0656 31.5889 56.7374 31.2607C56.4092 30.9325 55.9641 30.7481 55.5 30.7481C55.0359 30.7481 54.5908 30.9325 54.2626 31.2607C53.9344 31.5889 53.75 32.034 53.75 32.4981C53.75 32.9623 53.9344 33.4074 54.2626 33.7356C54.5908 34.0638 55.0359 34.2481 55.5 34.2481ZM34.5 44.7481C34.0359 44.7481 33.5908 44.9325 33.2626 45.2607C32.9344 45.5889 32.75 46.034 32.75 46.4981C32.75 46.9623 32.9344 47.4074 33.2626 47.7356C33.5908 48.0638 34.0359 48.2481 34.5 48.2481C34.9641 48.2481 35.4092 48.0638 35.7374 47.7356C36.0656 47.4074 36.25 46.9623 36.25 46.4981C36.25 46.034 36.0656 45.5889 35.7374 45.2607C35.4092 44.9325 34.9641 44.7481 34.5 44.7481Z" fill="#1E8CD9"></path>
</svg>