<svg width="90" height="71" viewBox="0 0 90 71" fill="none" xmlns="http://www.w3.org/2000/svg">
    <path d="M88.9918 40.343C85.8243 22.8768 73.523 13.6824 66.1861 7.17079C42.4919 -13.858 -2.82346 21.0914 0.138371 40.3433C5.82988 77.3379 20.952 32.7651 41.0105 62.8528C49.8959 76.1809 95.2373 74.7817 88.9918 40.343Z" fill="#F3FAFF"></path>
    <path d="M51.9136 62.6248H46.3953C45.42 62.6239 44.4848 62.2339 43.7951 61.5406C43.1054 60.8472 42.7175 59.9071 42.7165 58.9266V49.6809H46.3953V58.9266H51.9136V49.6809H55.5924V42.2843C55.5919 41.7941 55.3979 41.324 55.0531 40.9773C54.7082 40.6307 54.2407 40.4357 53.753 40.4352H37.7133L34.0345 29.3404H22.4831C21.9954 29.3409 21.5278 29.5358 21.1829 29.8825C20.8381 30.2292 20.6441 30.6992 20.6437 31.1895V42.2843H24.3225V58.9266H31.6801V45.9826H35.3589V58.9266C35.3579 59.9071 34.97 60.8472 34.2803 61.5406C33.5906 62.2339 32.6555 62.6239 31.6801 62.6248H24.3225C23.3471 62.6239 22.4119 62.2339 21.7222 61.5406C21.0325 60.8472 20.6446 59.9071 20.6437 58.9266V45.9826C19.6683 45.9816 18.7331 45.5917 18.0434 44.8983C17.3537 44.205 16.9658 43.2649 16.9648 42.2843V31.1895C16.9663 29.7187 17.5482 28.3085 18.5827 27.2685C19.6173 26.2285 21.02 25.6436 22.4831 25.6421H34.0345C34.8065 25.6416 35.5591 25.8855 36.1854 26.3393C36.8118 26.793 37.2801 27.4335 37.5239 28.1699L40.3621 36.7369H53.753C55.216 36.7384 56.6188 37.3233 57.6533 38.3633C58.6879 39.4034 59.2697 40.8135 59.2712 42.2843V49.6809C59.2702 50.6614 58.8823 51.6015 58.1926 52.2949C57.5029 52.9882 56.5677 53.3782 55.5924 53.3792V58.9266C55.5914 59.9071 55.2035 60.8472 54.5138 61.5406C53.8241 62.2339 52.8889 62.6239 51.9136 62.6248Z" fill="#1E8CD9"></path>
    <path d="M66.6272 62.6248H62.9483V42.2843H68.4666V31.1895C68.4661 30.6992 68.2721 30.2292 67.9273 29.8825C67.5824 29.5358 67.1148 29.3409 66.6272 29.3404H59.2695V25.6421H66.6272C68.0902 25.6436 69.493 26.2285 70.5275 27.2685C71.5621 28.3085 72.1439 29.7187 72.1454 31.1895V42.2843C72.1444 43.2649 71.7565 44.205 71.0668 44.8983C70.3771 45.5917 69.4419 45.9816 68.4666 45.9826H66.6272V62.6248Z" fill="#1E8CD9"></path>
    <path d="M28.0022 23.7931C26.547 23.7931 25.1244 23.3593 23.9145 22.5466C22.7045 21.7338 21.7615 20.5786 21.2046 19.2271C20.6477 17.8755 20.502 16.3883 20.7859 14.9536C21.0698 13.5188 21.7705 12.2008 22.7995 11.1664C23.8285 10.132 25.1395 9.42752 26.5668 9.14213C27.994 8.85673 29.4734 9.0032 30.8178 9.56303C32.1622 10.1229 33.3113 11.0709 34.1198 12.2872C34.9283 13.5036 35.3598 14.9337 35.3598 16.3966C35.3573 18.3575 34.5814 20.2374 33.2021 21.624C31.8228 23.0106 29.9528 23.7907 28.0022 23.7931ZM28.0022 12.6983C27.2746 12.6983 26.5633 12.9152 25.9583 13.3215C25.3533 13.7279 24.8818 14.3055 24.6034 14.9813C24.3249 15.6571 24.2521 16.4007 24.394 17.1181C24.536 17.8354 24.8864 18.4944 25.4008 19.0116C25.9153 19.5288 26.5708 19.8811 27.2845 20.0238C27.9981 20.1665 28.7378 20.0932 29.41 19.8133C30.0822 19.5334 30.6567 19.0594 31.061 18.4512C31.4652 17.843 31.681 17.128 31.681 16.3966C31.68 15.416 31.2921 14.4759 30.6024 13.7826C29.9127 13.0892 28.9775 12.6993 28.0022 12.6983Z" fill="#1E8CD9"></path>
    <path d="M61.1115 23.7931C59.6563 23.7931 58.2338 23.3593 57.0239 22.5466C55.8139 21.7338 54.8709 20.5786 54.314 19.2271C53.7571 17.8755 53.6114 16.3883 53.8953 14.9536C54.1792 13.5188 54.8799 12.2008 55.9089 11.1664C56.9379 10.132 58.2489 9.42752 59.6761 9.14213C61.1034 8.85673 62.5827 9.0032 63.9272 9.56303C65.2716 10.1229 66.4207 11.0709 67.2292 12.2872C68.0376 13.5036 68.4692 14.9337 68.4692 16.3966C68.4667 18.3575 67.6908 20.2374 66.3115 21.624C64.9322 23.0106 63.0621 23.7907 61.1115 23.7931ZM61.1115 12.6983C60.3839 12.6983 59.6727 12.9152 59.0677 13.3215C58.4627 13.7279 57.9912 14.3055 57.7128 14.9813C57.4343 15.6571 57.3615 16.4007 57.5034 17.1181C57.6454 17.8354 57.9957 18.4944 58.5102 19.0116C59.0247 19.5288 59.6802 19.8811 60.3938 20.0238C61.1075 20.1665 61.8471 20.0932 62.5194 19.8133C63.1916 19.5334 63.7661 19.0594 64.1704 18.4512C64.5746 17.843 64.7903 17.128 64.7903 16.3966C64.7894 15.416 64.4015 14.4759 63.7118 13.7826C63.0221 13.0892 62.0869 12.6993 61.1115 12.6983Z" fill="#1E8CD9"></path>
    <path d="M49.1528 34.8878C47.8795 34.8878 46.6348 34.5082 45.5761 33.7971C44.5173 33.0859 43.6922 32.0752 43.2049 30.8926C42.7176 29.71 42.5901 28.4087 42.8385 27.1532C43.087 25.8978 43.7001 24.7446 44.6005 23.8395C45.5008 22.9343 46.648 22.3179 47.8968 22.0682C49.1456 21.8185 50.4401 21.9467 51.6165 22.4365C52.7928 22.9264 53.7983 23.7559 54.5057 24.8202C55.2131 25.8845 55.5907 27.1358 55.5907 28.4158C55.5888 30.1317 54.9098 31.7767 53.7029 32.9901C52.496 34.2034 50.8596 34.8859 49.1528 34.8878ZM49.1528 25.6421C48.6071 25.6421 48.0736 25.8048 47.6199 26.1096C47.1662 26.4144 46.8125 26.8476 46.6037 27.3544C46.3949 27.8612 46.3402 28.4189 46.4467 28.957C46.5531 29.495 46.8159 29.9892 47.2018 30.3771C47.5877 30.7651 48.0793 31.0292 48.6145 31.1362C49.1497 31.2433 49.7045 31.1883 50.2086 30.9784C50.7128 30.7685 51.1437 30.413 51.4469 29.9568C51.7501 29.5007 51.9119 28.9644 51.9119 28.4158C51.9109 27.6805 51.6199 26.9756 51.1027 26.4556C50.5855 25.9357 49.8842 25.6431 49.1528 25.6421Z" fill="#1E8CD9"></path>
</svg>