<svg width="90" height="71" viewBox="0 0 90 71" fill="none" xmlns="http://www.w3.org/2000/svg">
    <path d="M88.9918 40.343C85.8243 22.8768 73.523 13.6824 66.1861 7.17079C42.4919 -13.858 -2.82346 21.0914 0.138371 40.3433C5.82988 77.3379 20.952 32.7651 41.0105 62.8528C49.8959 76.1809 95.2373 74.7817 88.9918 40.343Z" fill="#F3FAFF"></path>
    <path d="M70.9777 53.7731H65.509V48.3043C65.509 48.0036 65.2629 47.7575 64.9621 47.7575H61.6808C61.3801 47.7575 61.134 48.0036 61.134 48.3043V53.7731H55.6652C55.3644 53.7731 55.1183 54.0192 55.1183 54.32V57.6012C55.1183 57.902 55.3644 58.1481 55.6652 58.1481H61.134V63.6168C61.134 63.9176 61.3801 64.1637 61.6808 64.1637H64.9621C65.2629 64.1637 65.509 63.9176 65.509 63.6168V58.1481H70.9777C71.2785 58.1481 71.5246 57.902 71.5246 57.6012V54.32C71.5246 54.0192 71.2785 53.7731 70.9777 53.7731ZM35.5334 35.07C35.4718 34.4752 35.4377 33.8737 35.4377 33.2653C35.4377 32.1784 35.5402 31.1188 35.7316 30.0866C35.7795 29.8405 35.6496 29.5875 35.424 29.485C34.4943 29.068 33.6398 28.4938 32.9015 27.7692C32.0316 26.9257 31.347 25.9101 30.8915 24.7872C30.436 23.6644 30.2196 22.4589 30.256 21.2477C30.3176 19.0534 31.1994 16.9684 32.7375 15.3961C34.426 13.6666 36.6955 12.7233 39.1086 12.7506C41.2892 12.7711 43.3947 13.612 44.9875 15.1022C45.5275 15.6081 45.9924 16.1686 46.382 16.7702C46.5187 16.9821 46.7853 17.0709 47.0177 16.9889C48.2209 16.5719 49.4924 16.278 50.798 16.1413C51.1808 16.1002 51.3996 15.6901 51.2287 15.3483C49.007 10.9528 44.4679 7.91762 39.2179 7.83559C31.6437 7.71938 25.3273 13.9332 25.3273 21.5075C25.3273 25.8004 27.3029 29.6286 30.3996 32.1373C28.2258 33.1422 26.2228 34.5299 24.4865 36.2663C20.7404 40.0055 18.6213 44.9411 18.4845 50.2116C18.4827 50.2845 18.4955 50.3571 18.5222 50.425C18.5488 50.493 18.5888 50.5549 18.6398 50.6071C18.6908 50.6594 18.7517 50.7009 18.8189 50.7292C18.8862 50.7576 18.9584 50.7721 19.0314 50.7721H22.8664C23.1603 50.7721 23.4064 50.5397 23.4133 50.2458C23.5431 46.2809 25.1496 42.569 27.9728 39.7526C29.9826 37.7428 32.4435 36.3483 35.1301 35.6715C35.3898 35.5963 35.5676 35.3434 35.5334 35.07ZM66.3293 33.2653C66.3293 25.7868 60.3205 19.7096 52.8693 19.5934C45.2951 19.4772 38.9855 25.6911 38.9855 33.2653C38.9855 37.5582 40.9679 41.3864 44.0578 43.8952C41.8614 44.9132 39.862 46.311 38.1515 48.0241C34.4054 51.7633 32.2863 56.6989 32.1496 61.9625C32.1478 62.0355 32.1606 62.1081 32.1872 62.176C32.2139 62.244 32.2539 62.3059 32.3048 62.3581C32.3558 62.4104 32.4167 62.4519 32.484 62.4802C32.5512 62.5085 32.6235 62.5231 32.6965 62.5231H36.5246C36.8185 62.5231 37.0646 62.2907 37.0715 61.9967C37.2013 58.0319 38.8078 54.32 41.631 51.5036C44.5773 48.5573 48.4875 46.9372 52.6574 46.9372C60.2043 46.9372 66.3293 40.819 66.3293 33.2653ZM58.8439 39.4518C57.1896 41.1061 54.9953 42.0153 52.6574 42.0153C50.3195 42.0153 48.1252 41.1061 46.4709 39.4518C45.6453 38.6306 44.9931 37.652 44.5527 36.5741C44.1124 35.4961 43.893 34.3407 43.9074 33.1764C43.9279 30.9342 44.8234 28.7672 46.3888 27.1608C48.0295 25.4791 50.2238 24.5426 52.5685 24.5153C54.8859 24.4948 57.1349 25.3971 58.7892 27.0172C60.4845 28.6784 61.4142 30.9 61.4142 33.2653C61.4074 35.6032 60.4982 37.7975 58.8439 39.4518Z" fill="#1E8CD9"></path>
</svg>