<svg width="90" height="71" viewBox="0 0 90 71" fill="none" xmlns="http://www.w3.org/2000/svg">
    <path d="M88.9918 40.343C85.8243 22.8768 73.523 13.6824 66.1861 7.17079C42.4919 -13.858 -2.82346 21.0914 0.138371 40.3433C5.82988 77.3379 20.952 32.7651 41.0105 62.8528C49.8959 76.1809 95.2373 74.7817 88.9918 40.343Z" fill="#F3FAFF"></path>
    <path d="M58.125 31.2812C55.0501 31.2825 52.0306 32.1 49.375 33.6503V20.3438C49.375 16.2826 47.7618 12.3878 44.8901 9.51618C42.0185 6.64453 38.1237 5.03125 34.0625 5.03125C30.0014 5.03125 26.1066 6.64453 23.235 9.51618C20.3633 12.3878 18.75 16.2826 18.75 20.3438V50.9688C18.7437 54.0898 19.6932 57.1379 21.4708 59.7033C23.2483 62.2687 25.7688 64.2283 28.6932 65.3186C31.6176 66.409 34.8057 66.5777 37.8289 65.8023C40.852 65.0268 43.5653 63.3443 45.6038 60.9809C47.6182 63.0489 50.1131 64.5863 52.866 65.4558C55.6188 66.3253 58.5441 66.5 61.3809 65.9643C64.2178 65.4286 66.8779 64.1992 69.1241 62.3856C71.3703 60.572 73.1328 58.2308 74.2543 55.5706C75.3758 52.9104 75.8215 50.014 75.5517 47.1397C75.2819 44.2653 74.3049 41.5025 72.7079 39.0975C71.1108 36.6925 68.9434 34.7202 66.3989 33.3563C63.8544 31.9925 61.012 31.2796 58.125 31.2812V31.2812ZM34.0625 9.40625C36.9623 9.40972 39.7422 10.5632 41.7927 12.6136C43.8431 14.664 44.9966 17.444 45 20.3438V33.4688H23.125V20.3438C23.1285 17.444 24.282 14.664 26.3324 12.6136C28.3828 10.5632 31.1628 9.40972 34.0625 9.40625V9.40625ZM34.0625 61.9062C31.1628 61.9028 28.3828 60.7493 26.3324 58.6989C24.282 56.6485 23.1285 53.8685 23.125 50.9688V37.8438H44.486C42.2898 40.5646 40.9641 43.8838 40.6816 47.3689C40.3991 50.8541 41.1729 54.3435 42.9022 57.3825C41.8883 58.7786 40.5595 59.9158 39.0235 60.7018C37.4876 61.4878 35.7879 61.9005 34.0625 61.9062V61.9062ZM58.125 61.9062C55.5291 61.9062 52.9916 61.1365 50.8332 59.6943C48.6748 58.2521 46.9925 56.2023 45.9991 53.804C45.0057 51.4057 44.7458 48.7667 45.2522 46.2207C45.7587 43.6747 47.0087 41.336 48.8443 39.5005C50.6798 37.6649 53.0185 36.4149 55.5645 35.9084C58.1105 35.402 60.7495 35.6619 63.1477 36.6553C65.546 37.6487 67.5959 39.331 69.0381 41.4894C70.4803 43.6478 71.25 46.1854 71.25 48.7812C71.246 52.261 69.8619 55.597 67.4013 58.0576C64.9408 60.5181 61.6048 61.9022 58.125 61.9062V61.9062Z" fill="#1E8CD9"></path>
    <path d="M51.5625 46.5938H64.6875V50.9688H51.5625V46.5938Z" fill="#1E8CD9"></path>
</svg>